<svg id="Layer_1" data-name="Layer 1" xmlns="http://www.w3.org/2000/svg" viewBox="0 0 100 63.01"><defs><style>.cls-1{fill:#191d22;}</style></defs><title>realestate-logo</title><path class="cls-1" d="M16.42,81.45V74H19.6q2.13,0,2.13,1.8c0,1-.69,1.69-2.08,2.15l2.56,3.52H20.94l-2.38-3.36v-.63c1.43-.22,2.14-.77,2.14-1.64,0-.69-.39-1-1.19-1H17.38v6.67Z" transform="translate(0 -18.49)"/><path class="cls-1" d="M28.12,74v.79H24.2v2.5h3.73v.79H24.2v2.61h4v.78h-5V74Z" transform="translate(0 -18.49)"/><path class="cls-1" d="M29.9,81.45h-1L32.07,74h1.07l3.19,7.47H35.26l-1-2.35H31.82l.27-.78H34l-1.4-3.39Z" transform="translate(0 -18.49)"/><path class="cls-1" d="M38.31,74v6.69h3.91v.78H37.35V74Z" transform="translate(0 -18.49)"/><path class="cls-1" d="M50.86,74v.79H47v2.5h3.73v.79H47v2.61h4v.78H46V74Z" transform="translate(0 -18.49)"/><path class="cls-1" d="M52.3,81.19V80.3a7.48,7.48,0,0,0,2.54.42c1.28,0,1.93-.47,1.93-1.41s-.48-1.2-1.42-1.2h-1q-2.34,0-2.34-2c0-1.42,1-2.14,3-2.14a9,9,0,0,1,2.43.32v.88A6.89,6.89,0,0,0,55,74.71c-1.36,0-2,.46-2,1.36s.46,1.2,1.37,1.2h1c1.59,0,2.38.68,2.38,2s-1,2.2-2.89,2.2A9.76,9.76,0,0,1,52.3,81.19Z" transform="translate(0 -18.49)"/><path class="cls-1" d="M64.18,74v.79H61.83v6.68h-1V74.77H58.52V74Z" transform="translate(0 -18.49)"/><path class="cls-1" d="M64.8,81.45h-1L67,74H68l3.19,7.47H70.15l-1-2.35H66.71l.27-.78h1.88l-1.4-3.39Z" transform="translate(0 -18.49)"/><path class="cls-1" d="M76.5,74v.79H74.15v6.68h-1V74.77H70.83V74Z" transform="translate(0 -18.49)"/><path class="cls-1" d="M82.53,74v.79H78.61v2.5h3.74v.79H78.61v2.61h4v.78h-5V74Z" transform="translate(0 -18.49)"/><polygon class="cls-1" points="14.03 35.54 9.09 35.54 41.37 0 46.31 0 14.03 35.54"/><polygon class="cls-1" points="31.37 35.54 20.1 35.54 52.38 0 63.65 0 31.37 35.54"/><rect class="cls-1" x="50.05" y="22.2" width="4.86" height="4.86"/><rect class="cls-1" x="58.14" y="22.2" width="4.86" height="4.86"/><rect class="cls-1" x="50.05" y="29.86" width="4.86" height="4.86"/><rect class="cls-1" x="58.14" y="29.86" width="4.86" height="4.86"/><path class="cls-1" d="M100,65.3s-.39-.12-1.13-.31-1.81-.45-3.19-.75a98.33,98.33,0,0,0-11.45-1.68c-2.37-.22-4.93-.37-7.65-.43s-5.56,0-8.5.12c-1.48.08-3,.19-4.48.31l-2.27.23c-.76.08-1.53.17-2.29.27s-1.54.21-2.31.32-1.54.23-2.31.36c-1.54.23-3.08.55-4.62.85l-2.31.49c-.77.15-1.52.36-2.29.54l-1.14.27-1.2.29-1.17.27c-.39.09-.81.17-1.22.25L39.25,67,38,67.17l-1.2.2-1.2.16c-1.6.22-3.2.38-4.77.47a52.43,52.43,0,0,1-9.09-.23,41.22,41.22,0,0,1-8-1.72c-1.2-.41-2.34-.83-3.39-1.3a31.51,31.51,0,0,1-2.91-1.48,28.62,28.62,0,0,1-4.31-3A25.57,25.57,0,0,1,.77,58c-.26-.28-.45-.5-.58-.66S0,57.07,0,57.07l1,.62c.64.41,1.6,1,2.85,1.59A33.17,33.17,0,0,0,8.43,61.2a38.73,38.73,0,0,0,6.18,1.54c1.15.18,2.34.36,3.59.44.62.06,1.26.09,1.9.13s1.29,0,2,0a60.43,60.43,0,0,0,8.33-.53c1.44-.21,2.9-.41,4.38-.7l1.11-.22L37,61.66l1.11-.24,1.1-.26,1.11-.27,1.16-.31,1.13-.29,1.2-.3c1.59-.43,3.21-.78,4.83-1.13s3.26-.62,4.9-.85l1.22-.18L56,57.69c.82-.09,1.63-.2,2.44-.26l2.43-.2,2.42-.11c1.6,0,3.18-.08,4.73,0a80.76,80.76,0,0,1,8.93.68,72.59,72.59,0,0,1,7.86,1.47,66.2,66.2,0,0,1,6.46,1.93c1.89.68,3.5,1.36,4.8,2s2.28,1.16,3,1.54S100,65.3,100,65.3Z" transform="translate(0 -18.49)"/></svg>